<svg width="64" height="64" viewBox="0 0 64 64" fill="none" xmlns="http://www.w3.org/2000/svg">
<g clip-path="url(#clip0_4138_1521)">
<path d="M59.5 28.9375L57.875 22.3125C58.0833 22.2708 58.2604 22.1562 58.4062 21.9688C58.5521 21.7812 58.625 21.5625 58.625 21.3125V20.25C58.625 19.0833 58.2188 18.0938 57.4062 17.2812C56.5938 16.4688 55.6042 16.0625 54.4375 16.0625H46.875V13.8125C46.875 13.2708 46.6771 12.7917 46.2812 12.375C45.8854 11.9583 45.3958 11.75 44.8125 11.75H6.375C5.79167 11.75 5.29167 11.9583 4.875 12.375C4.45833 12.7917 4.25 13.2708 4.25 13.8125V32C4.25 32.2917 4.35417 32.5312 4.5625 32.7188C4.77083 32.9062 5 33 5.25 33C5.54167 33 5.78125 32.9062 5.96875 32.7188C6.15625 32.5312 6.25 32.2917 6.25 32V13.8125C6.25 13.8125 6.26042 13.8021 6.28125 13.7812C6.30208 13.7604 6.33333 13.75 6.375 13.75H44.8125C44.8542 13.75 44.875 13.7604 44.875 13.7812C44.875 13.8021 44.875 13.8125 44.875 13.8125V32C44.875 32.2917 44.9792 32.5312 45.1875 32.7188C45.3958 32.9062 45.625 33 45.875 33C46.1667 33 46.4062 32.9062 46.5938 32.7188C46.7812 32.5312 46.875 32.2917 46.875 32V30.875H58.75C59.4583 30.875 60.0938 31.0833 60.6562 31.5C61.2188 31.9167 61.6042 32.4583 61.8125 33.125H58.75C58.4583 33.125 58.2188 33.2292 58.0312 33.4375C57.8438 33.6458 57.75 33.875 57.75 34.125V36.25C57.75 37.125 58.0521 37.875 58.6562 38.5C59.2604 39.125 60 39.4375 60.875 39.4375H62V43.8125H59.375C58.9583 42.5625 58.1979 41.5417 57.0938 40.75C55.9896 39.9583 54.75 39.5625 53.375 39.5625C52 39.5625 50.7604 39.9583 49.6562 40.75C48.5521 41.5417 47.7917 42.5625 47.375 43.8125H46.875V36.25C46.875 36 46.7812 35.7708 46.5938 35.5625C46.4062 35.3542 46.1667 35.25 45.875 35.25C45.625 35.25 45.3958 35.3542 45.1875 35.5625C44.9792 35.7708 44.875 36 44.875 36.25V43.8125H24.125C23.6667 42.5625 22.8958 41.5417 21.8125 40.75C20.7292 39.9583 19.5 39.5625 18.125 39.5625C16.7083 39.5625 15.4583 39.9583 14.375 40.75C13.2917 41.5417 12.5417 42.5625 12.125 43.8125H6.375C6.33333 43.8125 6.30208 43.8125 6.28125 43.8125C6.26042 43.8125 6.25 43.7917 6.25 43.75V41.5625H10.625C10.9167 41.5625 11.1562 41.4583 11.3438 41.25C11.5312 41.0417 11.625 40.8125 11.625 40.5625C11.625 40.2708 11.5312 40.0312 11.3438 39.8438C11.1562 39.6562 10.9167 39.5625 10.625 39.5625H1C0.708333 39.5625 0.46875 39.6562 0.28125 39.8438C0.09375 40.0312 0 40.2708 0 40.5625C0 40.8125 0.09375 41.0417 0.28125 41.25C0.46875 41.4583 0.708333 41.5625 1 41.5625H4.25V43.75C4.25 44.3333 4.45833 44.8229 4.875 45.2188C5.29167 45.6146 5.79167 45.8125 6.375 45.8125H11.75C11.75 45.8542 11.75 45.875 11.75 45.875C11.75 47.625 12.375 49.125 13.625 50.375C14.875 51.625 16.375 52.25 18.125 52.25C19.875 52.25 21.3646 51.625 22.5938 50.375C23.8229 49.125 24.4375 47.625 24.4375 45.875C24.4375 45.875 24.4375 45.8542 24.4375 45.8125H47.0625C47.0625 45.8542 47.0521 45.875 47.0312 45.875C47.0104 45.875 47 45.875 47 45.875C47 47.625 47.625 49.125 48.875 50.375C50.125 51.625 51.625 52.25 53.375 52.25C55.125 52.25 56.625 51.625 57.875 50.375C59.125 49.125 59.75 47.625 59.75 45.875C59.75 45.875 59.75 45.8542 59.75 45.8125H63C63.2917 45.8125 63.5312 45.7188 63.7188 45.5312C63.9062 45.3438 64 45.1042 64 44.8125V34.125C64 32.8333 63.5729 31.6875 62.7188 30.6875C61.8646 29.6875 60.7917 29.1042 59.5 28.9375ZM46.875 18.0625H54.4375C55.0625 18.0625 55.5833 18.2708 56 18.6875C56.4167 19.1042 56.625 19.625 56.625 20.25V20.3125H46.875V18.0625ZM46.875 28.875V22.3125H55.8125L57.4375 28.875H46.875ZM18.125 50.25C16.9167 50.25 15.8854 49.8229 15.0312 48.9688C14.1771 48.1146 13.75 47.0833 13.75 45.875C13.75 44.7083 14.1771 43.6979 15.0312 42.8438C15.8854 41.9896 16.9167 41.5625 18.125 41.5625C19.2917 41.5625 20.3021 41.9896 21.1562 42.8438C22.0104 43.6979 22.4375 44.7083 22.4375 45.875C22.4375 47.0833 22.0104 48.1146 21.1562 48.9688C20.3021 49.8229 19.2917 50.25 18.125 50.25ZM53.375 50.25C52.1667 50.25 51.1458 49.8229 50.3125 48.9688C49.4792 48.1146 49.0625 47.0833 49.0625 45.875C49.0625 44.7083 49.4792 43.6979 50.3125 42.8438C51.1458 41.9896 52.1667 41.5625 53.375 41.5625C54.5833 41.5625 55.6146 41.9896 56.4688 42.8438C57.3229 43.6979 57.75 44.7083 57.75 45.875C57.75 47.0833 57.3229 48.1146 56.4688 48.9688C55.6146 49.8229 54.5833 50.25 53.375 50.25ZM62 37.4375H60.875C60.5417 37.4375 60.2708 37.3229 60.0625 37.0938C59.8542 36.8646 59.75 36.5833 59.75 36.25V35.125H62V37.4375ZM18.125 43.8125C17.5417 43.8125 17.0521 44.0208 16.6562 44.4375C16.2604 44.8542 16.0625 45.3333 16.0625 45.875C16.0625 46.4583 16.2604 46.9479 16.6562 47.3438C17.0521 47.7396 17.5417 47.9375 18.125 47.9375C18.6667 47.9375 19.1458 47.7396 19.5625 47.3438C19.9792 46.9479 20.1875 46.4583 20.1875 45.875C20.1875 45.3333 19.9792 44.8542 19.5625 44.4375C19.1458 44.0208 18.6667 43.8125 18.125 43.8125ZM53.375 43.8125C52.7917 43.8125 52.3021 44.0208 51.9062 44.4375C51.5104 44.8542 51.3125 45.3333 51.3125 45.875C51.3125 46.4583 51.5104 46.9479 51.9062 47.3438C52.3021 47.7396 52.7917 47.9375 53.375 47.9375C53.9583 47.9375 54.4479 47.7396 54.8438 47.3438C55.2396 46.9479 55.4375 46.4583 55.4375 45.875C55.4375 45.3333 55.2396 44.8542 54.8438 44.4375C54.4479 44.0208 53.9583 43.8125 53.375 43.8125ZM41.625 39.5625H26.625C26.375 39.5625 26.1458 39.6562 25.9375 39.8438C25.7292 40.0312 25.625 40.2708 25.625 40.5625C25.625 40.8125 25.7292 41.0417 25.9375 41.25C26.1458 41.4583 26.375 41.5625 26.625 41.5625H41.625C41.9167 41.5625 42.1562 41.4583 42.3438 41.25C42.5312 41.0417 42.625 40.8125 42.625 40.5625C42.625 40.2708 42.5312 40.0312 42.3438 39.8438C42.1562 39.6562 41.9167 39.5625 41.625 39.5625ZM15.9375 35.25H3.125C2.875 35.25 2.64583 35.3542 2.4375 35.5625C2.22917 35.7708 2.125 36 2.125 36.25C2.125 36.5417 2.22917 36.7812 2.4375 36.9688C2.64583 37.1562 2.875 37.25 3.125 37.25H15.9375C16.2292 37.25 16.4688 37.1562 16.6562 36.9688C16.8438 36.7812 16.9375 36.5417 16.9375 36.25C16.9375 36 16.8438 35.7708 16.6562 35.5625C16.4688 35.3542 16.2292 35.25 15.9375 35.25ZM34.875 21.6875C34.6667 21.4792 34.4271 21.375 34.1562 21.375C33.8854 21.375 33.6458 21.4792 33.4375 21.6875L24.5 30.5625L19.875 25.9375C19.6667 25.7292 19.4271 25.625 19.1562 25.625C18.8854 25.625 18.6458 25.7292 18.4375 25.9375C18.2708 26.1458 18.1875 26.3854 18.1875 26.6562C18.1875 26.9271 18.2708 27.1667 18.4375 27.375L23.8125 32.6875C23.8958 32.8125 24 32.8958 24.125 32.9375C24.25 32.9792 24.375 33 24.5 33C24.625 33 24.75 32.9792 24.875 32.9375C25 32.8958 25.125 32.8125 25.25 32.6875L34.875 23.0625C35.0417 22.8958 35.125 22.6667 35.125 22.375C35.125 22.0833 35.0417 21.8542 34.875 21.6875Z" fill="#4BAF47"/>
</g>
<defs>
<clipPath id="clip0_4138_1521">
<rect width="64" height="64" fill="white" transform="matrix(1 0 0 -1 0 64)"/>
</clipPath>
</defs>
</svg>
