<svg width="14" height="14" viewBox="0 0 14 14" fill="none" xmlns="http://www.w3.org/2000/svg">
<g clip-path="url(#clip0_4140_895)">
<path d="M13.7402 5.22266C13.7858 5.17708 13.8405 5.17025 13.9043 5.20215C13.9681 5.23405 14 5.2819 14 5.3457V10.9375C14 11.3021 13.8724 11.612 13.6172 11.8672C13.362 12.1224 13.0521 12.25 12.6875 12.25H1.3125C0.947917 12.25 0.638021 12.1224 0.382812 11.8672C0.127604 11.612 0 11.3021 0 10.9375V5.3457C0 5.2819 0.0296224 5.23405 0.0888672 5.20215C0.148112 5.17025 0.205078 5.17708 0.259766 5.22266C0.569661 5.45964 1.0026 5.7832 1.55859 6.19336C2.11458 6.60352 3.08984 7.31445 4.48438 8.32617C4.76693 8.53581 5.13607 8.80697 5.5918 9.13965C6.04753 9.47233 6.51693 9.63411 7 9.625C7.49219 9.63411 7.96615 9.47005 8.42188 9.13281C8.8776 8.79557 9.24675 8.52669 9.5293 8.32617C10.9238 7.31445 11.8968 6.60352 12.4482 6.19336C12.9997 5.7832 13.4303 5.45964 13.7402 5.22266ZM7 8.75C6.68099 8.75911 6.32324 8.61328 5.92676 8.3125C5.53027 8.01172 5.2181 7.7793 4.99023 7.61523C3.17643 6.30273 2.03711 5.47103 1.57227 5.12012C1.10742 4.76921 0.665365 4.42969 0.246094 4.10156C0.173177 4.03776 0.113932 3.96029 0.0683594 3.86914C0.0227865 3.778 0 3.68229 0 3.58203V3.0625C0 2.69792 0.127604 2.38802 0.382812 2.13281C0.638021 1.8776 0.947917 1.75 1.3125 1.75H12.6875C13.0521 1.75 13.362 1.8776 13.6172 2.13281C13.8724 2.38802 14 2.69792 14 3.0625V3.58203C14 3.68229 13.9772 3.778 13.9316 3.86914C13.8861 3.96029 13.8268 4.03776 13.7539 4.10156C13.3346 4.42969 12.8926 4.76921 12.4277 5.12012C11.9629 5.47103 10.8236 6.30273 9.00977 7.61523C8.7819 7.7793 8.46973 8.01172 8.07324 8.3125C7.67676 8.61328 7.31901 8.75911 7 8.75Z" fill="#EEC044"/>
</g>
<defs>
<clipPath id="clip0_4140_895">
<rect width="14" height="14" fill="white" transform="matrix(1 0 0 -1 0 14)"/>
</clipPath>
</defs>
</svg>
