<svg width="64" height="64" viewBox="0 0 64 64" fill="none" xmlns="http://www.w3.org/2000/svg">
<path d="M25 25C25.8333 25 26.5417 24.7083 27.125 24.125C27.7083 23.5417 28 22.8333 28 22V21H26V22C26 22.2917 25.9062 22.5312 25.7188 22.7188C25.5312 22.9062 25.2917 23 25 23C24.7083 23 24.4688 22.9062 24.2812 22.7188C24.0938 22.5312 24 22.2917 24 22V21H22V22C22 22.8333 22.2917 23.5417 22.875 24.125C23.4583 24.7083 24.1667 25 25 25ZM62 53V38C62 36.0833 61.3125 34.4375 59.9375 33.0625C58.5625 31.6875 56.9167 31 55 31H51C49.625 31 48.3646 31.375 47.2188 32.125C46.0729 32.875 45.2292 33.8333 44.6875 35H34V34.5625L37.3125 32.5625C37.7292 32.3542 38.1146 32.1042 38.4688 31.8125C38.8229 31.5208 39.1667 31.2292 39.5 30.9375L40.875 32.25C41.0833 32.5 41.3438 32.6875 41.6562 32.8125C41.9688 32.9375 42.2917 33 42.625 33C43.2917 33 43.8542 32.7708 44.3125 32.3125C44.7708 31.8542 45.0208 31.2917 45.0625 30.625L46 4C46 3.16667 45.7083 2.45833 45.125 1.875C44.5417 1.29167 43.8333 1 43 1L16.375 1.9375C15.7083 1.97917 15.1458 2.22917 14.6875 2.6875C14.2292 3.14583 14 3.70833 14 4.375C14 4.70833 14.0625 5.03125 14.1875 5.34375C14.3125 5.65625 14.4792 5.91667 14.6875 6.125L16.625 8.0625C15.8333 8.60417 15.1979 9.3125 14.7188 10.1875C14.2396 11.0625 14 12 14 13C14 14.2917 14.375 15.4479 15.125 16.4688C15.875 17.4896 16.8333 18.2083 18 18.625V19.375C18 20.4583 17.8438 21.5208 17.5312 22.5625C17.2188 23.6042 16.7708 24.5625 16.1875 25.4375L15.6875 26.125L18 28.4375V33.1875C18 33.5208 18.0417 33.8438 18.125 34.1562C18.2083 34.4688 18.3333 34.75 18.5 35H14.875C14.6667 33.875 14.1042 32.9271 13.1875 32.1562C12.2708 31.3854 11.2083 31 10 31C8.79167 31 7.72917 31.3854 6.8125 32.1562C5.89583 32.9271 5.33333 33.875 5.125 35H2C1.45833 35 0.989583 35.1979 0.59375 35.5938C0.197917 35.9896 0 36.4583 0 37V39C0 39.5417 0.197917 40.0104 0.59375 40.4062C0.989583 40.8021 1.45833 41 2 41H6V49.875C6 52.125 6.79167 54.0417 8.375 55.625C9.95833 57.2083 11.875 58 14.125 58C14.4583 58 14.7917 57.9792 15.125 57.9375C15.4583 57.8958 15.7708 57.8333 16.0625 57.75L18 57.25V61H0V63H62V61H40V48.6875C40 47.2708 39.75 45.8958 39.25 44.5625C38.75 43.2292 38.0625 42.0417 37.1875 41H44V53H62ZM46 38C46 36.625 46.4896 35.4479 47.4688 34.4688C48.4479 33.4896 49.625 33 51 33H55C56.375 33 57.5521 33.4896 58.5312 34.4688C59.5104 35.4479 60 36.625 60 38V51H50V41H48V51H46V38ZM36.3125 30.875L34 32.25V29.625L35.75 28.75C35.9167 28.6667 36.0833 28.5729 36.25 28.4688C36.4167 28.3646 36.5625 28.25 36.6875 28.125L38.0625 29.5C37.8125 29.75 37.5312 29.9896 37.2188 30.2188C36.9062 30.4479 36.6042 30.6667 36.3125 30.875ZM43.1875 3.8125L35.0625 23.625L23.375 11.9375L43.1875 3.8125ZM42.3125 30.875L36.625 25.1875L43.875 7.375L43.0625 30.5625C43.0625 30.7292 42.9688 30.8542 42.7812 30.9375C42.5938 31.0208 42.4375 31 42.3125 30.875ZM16 4.375C16 4.25 16.0417 4.14583 16.125 4.0625C16.2083 3.97917 16.3125 3.9375 16.4375 3.9375L39.625 3.125L21.8125 10.375L16.125 4.6875C16.0833 4.64583 16.0521 4.60417 16.0312 4.5625C16.0104 4.52083 16 4.45833 16 4.375ZM16 13C16 12.25 16.1875 11.5625 16.5625 10.9375C16.9375 10.3125 17.4375 9.83333 18.0625 9.5L25.5625 17H20C18.9167 17 17.9792 16.6042 17.1875 15.8125C16.3958 15.0208 16 14.0833 16 13ZM20 19.375V19H27.5625L35.25 26.6875C35.2083 26.7292 35.1458 26.7708 35.0625 26.8125C34.9792 26.8542 34.9167 26.8958 34.875 26.9375L32 28.375V38.1875C30.9167 38.3958 29.875 38.6979 28.875 39.0938C27.875 39.4896 26.9167 39.9792 26 40.5625V36.4375L26.9375 36.3125C27.7708 36.1875 28.5417 35.875 29.25 35.375C29.9583 34.875 30.5 34.2292 30.875 33.4375L29.125 32.5625C28.875 33.0208 28.5312 33.4062 28.0938 33.7188C27.6562 34.0312 27.1667 34.2292 26.625 34.3125L22.0625 35C21.5208 35.0417 21.0417 34.8854 20.625 34.5312C20.2083 34.1771 20 33.7292 20 33.1875V33H22C23.0833 33 24.0208 32.6042 24.8125 31.8125C25.6042 31.0208 26 30.0833 26 29H24C24 29.5417 23.8021 30.0104 23.4062 30.4062C23.0104 30.8021 22.5417 31 22 31H20V27.5625L18.25 25.875C18.8333 24.875 19.2708 23.8333 19.5625 22.75C19.8542 21.6667 20 20.5417 20 19.375ZM20.5625 51H24V52C24 53.0833 23.6042 54.0208 22.8125 54.8125C22.0208 55.6042 21.0833 56 20 56V55.125C20 54.4167 20.0521 53.7188 20.1562 53.0312C20.2604 52.3438 20.3958 51.6667 20.5625 51ZM14.9375 37H21.8125C21.8958 37 21.9792 37 22.0625 37C22.1458 37 22.2292 36.9792 22.3125 36.9375L24 36.75V39H14.375L14.625 38.25C14.7083 38.0417 14.7708 37.8333 14.8125 37.625C14.8542 37.4167 14.8958 37.2083 14.9375 37ZM14.1875 41H24V42.0625C23.9167 42.1875 23.8229 42.2917 23.7188 42.375C23.6146 42.4583 23.5 42.5417 23.375 42.625L15.0625 46.4375L14.1875 41ZM20.5625 46.125C20.3542 46.4583 20.1667 46.8021 20 47.1562C19.8333 47.5104 19.6667 47.8542 19.5 48.1875L18.75 46.9375L20.5625 46.125ZM2 37H5.0625C5.10417 37.2083 5.14583 37.4167 5.1875 37.625C5.22917 37.8333 5.29167 38.0417 5.375 38.25L5.625 39H2V37ZM15.625 55.8125C15.375 55.8958 15.125 55.9479 14.875 55.9688C14.625 55.9896 14.375 56 14.125 56C12.4167 56 10.9688 55.4062 9.78125 54.2188C8.59375 53.0312 8 51.5833 8 49.875V39.8125L7.25 37.625C7.16667 37.375 7.10417 37.1146 7.0625 36.8438C7.02083 36.5729 7 36.2917 7 36C7 35.1667 7.29167 34.4583 7.875 33.875C8.45833 33.2917 9.16667 33 10 33C10.8333 33 11.5417 33.2917 12.125 33.875C12.7083 34.4583 13 35.1667 13 36C13 36.2917 12.9792 36.5729 12.9375 36.8438C12.8958 37.1146 12.8333 37.375 12.75 37.625L12 39.9375L14 52.1875L16 51.8125L15.4375 48.4375L16.875 47.75L18.625 50.625C18.4167 51.3333 18.2604 52.0729 18.1562 52.8438C18.0521 53.6146 18 54.375 18 55.125V55.25L15.625 55.8125ZM32 53H38V55H32V53ZM32 61V57H38V61H32ZM38 51H32V47H30V61H20V58C21.6667 58 23.0833 57.4167 24.25 56.25C25.4167 55.0833 26 53.6667 26 52V49H21.3125C22.3542 46.7083 23.8854 44.75 25.9062 43.125C27.9271 41.5 30.2292 40.4792 32.8125 40.0625C34.4375 40.8958 35.7083 42.0938 36.625 43.6562C37.5417 45.2188 38 46.8958 38 48.6875V51ZM34.9375 39C34.8125 38.875 34.6667 38.7708 34.5 38.6875C34.3333 38.6042 34.1667 38.5 34 38.375V37H44.0625C44.0625 37.1667 44.0521 37.3333 44.0312 37.5C44.0104 37.6667 44 37.8333 44 38V39H34.9375ZM53 41C53.8333 41 54.5417 40.7083 55.125 40.125C55.7083 39.5417 56 38.8333 56 38C56 37.1667 55.7083 36.4583 55.125 35.875C54.5417 35.2917 53.8333 35 53 35C52.1667 35 51.4583 35.2917 50.875 35.875C50.2917 36.4583 50 37.1667 50 38C50 38.8333 50.2917 39.5417 50.875 40.125C51.4583 40.7083 52.1667 41 53 41ZM53 37C53.2917 37 53.5312 37.0938 53.7188 37.2812C53.9062 37.4688 54 37.7083 54 38C54 38.2917 53.9062 38.5312 53.7188 38.7188C53.5312 38.9062 53.2917 39 53 39C52.7083 39 52.4688 38.9062 52.2812 38.7188C52.0938 38.5312 52 38.2917 52 38C52 37.7083 52.0938 37.4688 52.2812 37.2812C52.4688 37.0938 52.7083 37 53 37Z" fill="#C5CE38"/>
</svg>
