<svg width="64" height="64" viewBox="0 0 64 64" fill="none" xmlns="http://www.w3.org/2000/svg">
<g clip-path="url(#clip0_4138_1515)">
<path d="M48.4375 49.0625L47 50.4375L43.5625 47.0625H46.4375L48.4375 49.0625ZM54 49.0625C54 50.7292 53.4167 52.1458 52.25 53.3125C51.0833 54.4792 49.6667 55.0625 48 55.0625H42V53.0625H48C49.125 53.0625 50.0729 52.6667 50.8438 51.875C51.6146 51.0833 52 50.1458 52 49.0625C52 48.6875 51.9479 48.3333 51.8438 48C51.7396 47.6667 51.6042 47.3333 51.4375 47V47.0625H53.625C53.75 47.3542 53.8438 47.6667 53.9062 48C53.9688 48.3333 54 48.6875 54 49.0625ZM47 50.4375L40.5625 44.0625L47 37.625L48.4375 39.0625L43.4375 44.0625L48.4375 49.0625L47 50.4375ZM8 42.25V44.0625L3 42.0625V40.25L8 42.25ZM8 39.125V40.9375L3 38.9375V37.125L8 39.125ZM31.0625 58.1875L0 44.6875V21.4375L32.9375 3.9375L62 15.375V38.625L56.75 41.9375L55.6875 40.25L60 37.5V16.75L33.0625 6.125L2 22.625V43.375L30.9375 55.9375L37.125 52L38.1875 53.6875L31.0625 58.1875ZM31 58.0625C30.9167 58.0625 30.8438 58.0521 30.7812 58.0312C30.7188 58.0104 30.6458 57.9792 30.5625 57.9375H30.625L0.625 44.9375C0.416667 44.8958 0.260417 44.7917 0.15625 44.625C0.0520833 44.4583 0 44.2708 0 44.0625V22.0625C0 21.7708 0.09375 21.5312 0.28125 21.3438C0.46875 21.1562 0.708333 21.0625 1 21.0625C1.08333 21.0625 1.15625 21.0625 1.21875 21.0625C1.28125 21.0625 1.33333 21.0833 1.375 21.125L31.375 33.125C31.5417 33.2083 31.6875 33.3333 31.8125 33.5C31.9375 33.6667 32 33.8542 32 34.0625V57.0625C32 57.3125 31.9062 57.5417 31.7188 57.75C31.5312 57.9583 31.2917 58.0625 31 58.0625ZM2 43.375L30 55.5V34.75L2 23.5V43.375ZM31 58.0625C30.7083 58.0625 30.4688 57.9583 30.2812 57.75C30.0938 57.5417 30 57.3125 30 57.0625V34.0625C30 33.8542 30.0417 33.6771 30.125 33.5312C30.2083 33.3854 30.3333 33.2708 30.5 33.1875L60.5 15.1875C60.5833 15.1458 60.6667 15.1146 60.75 15.0938C60.8333 15.0729 60.9167 15.0625 61 15.0625C61.2917 15.0625 61.5312 15.1562 61.7188 15.3438C61.9062 15.5312 62 15.7708 62 16.0625V38.0625C62 38.2292 61.9583 38.3854 61.875 38.5312C61.7917 38.6771 61.6875 38.7917 61.5625 38.875L56.75 41.9375L55.6875 40.25L60 37.5V17.8125L32 34.625V55.25L37.125 52L38.1875 53.6875L31.5625 57.875C31.4792 57.9167 31.3854 57.9583 31.2812 58C31.1771 58.0417 31.0833 58.0625 31 58.0625ZM19 37.0625C18.9167 37.0625 18.8438 37.0521 18.7812 37.0312C18.7188 37.0104 18.6667 37 18.625 37L13.625 35C13.4583 34.9167 13.3125 34.7917 13.1875 34.625C13.0625 34.4583 13 34.2708 13 34.0625V27.25C13 26.9583 13.0938 26.7188 13.2812 26.5312C13.4688 26.3438 13.7083 26.25 14 26.25C14.0833 26.25 14.1562 26.2604 14.2188 26.2812C14.2812 26.3021 14.3333 26.3125 14.375 26.3125L19.375 28.3125C19.5417 28.3958 19.6875 28.5208 19.8125 28.6875C19.9375 28.8542 20 29.0417 20 29.25V36.0625C20 36.3125 19.9062 36.5417 19.7188 36.75C19.5312 36.9583 19.2917 37.0625 19 37.0625ZM15 33.375L18 34.5625V29.9375L15 28.75V33.375ZM19 30.25C18.9167 30.25 18.8438 30.2396 18.7812 30.2188C18.7188 30.1979 18.6667 30.1875 18.625 30.1875L13.625 28.1875C13.4583 28.1042 13.3125 27.9792 13.1875 27.8125C13.0625 27.6458 13 27.4583 13 27.25C13 27.0833 13.0417 26.9271 13.125 26.7812C13.2083 26.6354 13.3333 26.5 13.5 26.375L42.8125 8.25C42.8542 8.20833 42.9271 8.17708 43.0312 8.15625C43.1354 8.13542 43.2292 8.125 43.3125 8.125C43.3958 8.125 43.4688 8.125 43.5312 8.125C43.5938 8.125 43.6458 8.14583 43.6875 8.1875L48.75 10.1875C48.9167 10.2292 49.0521 10.3333 49.1562 10.5C49.2604 10.6667 49.3125 10.8542 49.3125 11.0625C49.3125 11.2708 49.2708 11.4479 49.1875 11.5938C49.1042 11.7396 49 11.8542 48.875 11.9375L19.5 30.125C19.4583 30.1667 19.3854 30.1979 19.2812 30.2188C19.1771 30.2396 19.0833 30.25 19 30.25ZM16.1875 27.0625L18.875 28.125L46.125 11.25L43.4375 10.1875L16.1875 27.0625ZM47 60.0625C45.2083 60.0625 43.5208 59.7083 41.9375 59C40.3542 58.3333 38.9792 57.4167 37.8125 56.25C36.6458 55.0833 35.7083 53.7083 35 52.125C34.3333 50.5417 34 48.8542 34 47.0625C34 45.2708 34.3333 43.5833 35 42C35.7083 40.4167 36.6458 39.0312 37.8125 37.8438C38.9792 36.6562 40.3542 35.7292 41.9375 35.0625C43.5208 34.3958 45.2083 34.0625 47 34.0625C48.7917 34.0625 50.4792 34.3958 52.0625 35.0625C53.6458 35.7292 55.0208 36.6562 56.1875 37.8438C57.3542 39.0312 58.2917 40.4167 59 42C59.6667 43.5833 60 45.2708 60 47.0625C60 48.8542 59.6667 50.5417 59 52.125C58.2917 53.7083 57.3542 55.0833 56.1875 56.25C55.0208 57.4167 53.6458 58.3333 52.0625 59C50.4792 59.7083 48.7917 60.0625 47 60.0625ZM47 36.0625C43.9583 36.0625 41.3646 37.1354 39.2188 39.2812C37.0729 41.4271 36 44.0208 36 47.0625C36 50.1042 37.0729 52.6979 39.2188 54.8438C41.3646 56.9896 43.9583 58.0625 47 58.0625C50.0417 58.0625 52.6354 56.9896 54.7812 54.8438C56.9271 52.6979 58 50.1042 58 47.0625C58 44.0208 56.9271 41.4271 54.7812 39.2812C52.6354 37.1354 50.0417 36.0625 47 36.0625ZM48 55.0625H42V53.0625H48C49.125 53.0625 50.0729 52.6667 50.8438 51.875C51.6146 51.0833 52 50.1458 52 49.0625C52 47.9375 51.6146 46.9896 50.8438 46.2188C50.0729 45.4479 49.125 45.0625 48 45.0625H42V43.0625H48C49.6667 43.0625 51.0833 43.6458 52.25 44.8125C53.4167 45.9792 54 47.3958 54 49.0625C54 50.7292 53.4167 52.1458 52.25 53.3125C51.0833 54.4792 49.6667 55.0625 48 55.0625Z" fill="#4BAF47"/>
</g>
<defs>
<clipPath id="clip0_4138_1515">
<rect width="64" height="64" fill="white" transform="matrix(1 0 0 -1 0 64)"/>
</clipPath>
</defs>
</svg>
