<svg width="89" height="36" viewBox="0 0 89 36" fill="none" xmlns="http://www.w3.org/2000/svg">
<g clip-path="url(#clip0_4138_1547)">
<g clip-path="url(#clip1_4138_1547)">
<path d="M6.748 33H0L0.798 30.508L6.412 30.536L6.72 29.57L1.106 29.598L2.366 25.72C2.548 25.104 2.772 24.656 3.038 24.376C3.234 24.194 3.374 24.096 3.43 24.068C3.822 23.872 4.088 23.732 6.09 23.704H11.788L10.85 26.546H5.264L4.956 27.47L10.542 27.484C9.674 30.102 10.094 28.87 9.17 31.628C9.03 32.076 8.848 32.398 8.652 32.594C8.484 32.818 8.078 33 6.748 33ZM20.8378 33H14.0898L14.8878 30.508L20.5018 30.536L20.8098 29.57L15.1958 29.598L16.4558 25.72C16.6378 25.104 16.8618 24.656 17.1278 24.376C17.3238 24.194 17.4638 24.096 17.5198 24.068C17.9118 23.872 18.1778 23.732 20.1798 23.704H25.8778L24.9398 26.546H19.3538L19.0458 27.47L24.6318 27.484C23.7638 30.102 24.1838 28.87 23.2598 31.628C23.1198 32.076 22.9378 32.398 22.7418 32.594C22.5738 32.818 22.1678 33 20.8378 33ZM34.9277 33H28.1797L28.9777 30.508L34.5917 30.536L34.8997 29.57L29.2857 29.598L30.5457 25.72C30.7277 25.104 30.9517 24.656 31.2177 24.376C31.4137 24.194 31.5537 24.096 31.6097 24.068C32.0017 23.872 32.2677 23.732 34.2697 23.704H39.9677L39.0297 26.546H33.4437L33.1357 27.47L38.7217 27.484C37.8537 30.102 38.2737 28.87 37.3497 31.628C37.2097 32.076 37.0277 32.398 36.8317 32.594C36.6637 32.818 36.2577 33 34.9277 33ZM49.0175 33H42.2695L43.0675 30.508L48.6815 30.536L48.9895 29.57L43.3755 29.598L44.6355 25.72C44.8175 25.104 45.0415 24.656 45.3075 24.376C45.5035 24.194 45.6435 24.096 45.6995 24.068C46.0915 23.872 46.3575 23.732 48.3595 23.704H54.0575L53.1195 26.546H47.5335L47.2255 27.47L52.8115 27.484C51.9435 30.102 52.3635 28.87 51.4395 31.628C51.2995 32.076 51.1175 32.398 50.9215 32.594C50.7535 32.818 50.3475 33 49.0175 33ZM63.1074 33H56.3594L57.1574 30.508L62.7714 30.536L63.0794 29.57L57.4654 29.598L58.7254 25.72C58.9074 25.104 59.1314 24.656 59.3974 24.376C59.5934 24.194 59.7334 24.096 59.7894 24.068C60.1814 23.872 60.4474 23.732 62.4494 23.704H68.1474L67.2094 26.546H61.6234L61.3154 27.47L66.9014 27.484C66.0334 30.102 66.4534 28.87 65.5294 31.628C65.3894 32.076 65.2074 32.398 65.0114 32.594C64.8434 32.818 64.4374 33 63.1074 33Z" fill="#EEC044"/>
<g clip-path="url(#clip2_4138_1547)">
<path d="M6.748 33H0L0.798 30.508L6.412 30.536L6.72 29.57L1.106 29.598L2.366 25.72C2.548 25.104 2.772 24.656 3.038 24.376C3.234 24.194 3.374 24.096 3.43 24.068C3.822 23.872 4.088 23.732 6.09 23.704H11.788L10.85 26.546H5.264L4.956 27.47L10.542 27.484C9.674 30.102 10.094 28.87 9.17 31.628C9.03 32.076 8.848 32.398 8.652 32.594C8.484 32.818 8.078 33 6.748 33ZM20.8378 33H14.0898L14.8878 30.508L20.5018 30.536L20.8098 29.57L15.1958 29.598L16.4558 25.72C16.6378 25.104 16.8618 24.656 17.1278 24.376C17.3238 24.194 17.4638 24.096 17.5198 24.068C17.9118 23.872 18.1778 23.732 20.1798 23.704H25.8778L24.9398 26.546H19.3538L19.0458 27.47L24.6318 27.484C23.7638 30.102 24.1838 28.87 23.2598 31.628C23.1198 32.076 22.9378 32.398 22.7418 32.594C22.5738 32.818 22.1678 33 20.8378 33ZM34.9277 33H28.1797L28.9777 30.508L34.5917 30.536L34.8997 29.57L29.2857 29.598L30.5457 25.72C30.7277 25.104 30.9517 24.656 31.2177 24.376C31.4137 24.194 31.5537 24.096 31.6097 24.068C32.0017 23.872 32.2677 23.732 34.2697 23.704H39.9677L39.0297 26.546H33.4437L33.1357 27.47L38.7217 27.484C37.8537 30.102 38.2737 28.87 37.3497 31.628C37.2097 32.076 37.0277 32.398 36.8317 32.594C36.6637 32.818 36.2577 33 34.9277 33ZM49.0175 33H42.2695L43.0675 30.508L48.6815 30.536L48.9895 29.57L43.3755 29.598L44.6355 25.72C44.8175 25.104 45.0415 24.656 45.3075 24.376C45.5035 24.194 45.6435 24.096 45.6995 24.068C46.0915 23.872 46.3575 23.732 48.3595 23.704H54.0575L53.1195 26.546H47.5335L47.2255 27.47L52.8115 27.484C51.9435 30.102 52.3635 28.87 51.4395 31.628C51.2995 32.076 51.1175 32.398 50.9215 32.594C50.7535 32.818 50.3475 33 49.0175 33ZM63.1074 33H56.3594L57.1574 30.508L62.7714 30.536L63.0794 29.57L57.4654 29.598L58.7254 25.72C58.9074 25.104 59.1314 24.656 59.3974 24.376C59.5934 24.194 59.7334 24.096 59.7894 24.068C60.1814 23.872 60.4474 23.732 62.4494 23.704H68.1474L67.2094 26.546H61.6234L61.3154 27.47L66.9014 27.484C66.0334 30.102 66.4534 28.87 65.5294 31.628C65.3894 32.076 65.2074 32.398 65.0114 32.594C64.8434 32.818 64.4374 33 63.1074 33Z" fill="#EEC044"/>
</g>
</g>
</g>
<defs>
<clipPath id="clip0_4138_1547">
<rect width="89" height="36" fill="white"/>
</clipPath>
<clipPath id="clip1_4138_1547">
<rect width="89" height="14" fill="white" transform="translate(0 22)"/>
</clipPath>
<clipPath id="clip2_4138_1547">
<rect width="89" height="49" fill="white" transform="translate(0 22)"/>
</clipPath>
</defs>
</svg>
