<svg width="15" height="18" viewBox="0 0 15 18" fill="none" xmlns="http://www.w3.org/2000/svg">
<g clip-path="url(#clip0_4140_891)">
<path d="M14.1553 12.4629C14.1553 12.6387 14.1201 12.873 14.0498 13.166C13.9795 13.459 13.9092 13.6875 13.8389 13.8516C13.6982 14.1914 13.2881 14.5488 12.6084 14.9238C11.9756 15.2637 11.3545 15.4336 10.7451 15.4336C10.5576 15.4336 10.3818 15.4219 10.2178 15.3984C10.042 15.375 9.84863 15.334 9.6377 15.2754C9.42676 15.2051 9.26855 15.1523 9.16309 15.1172C9.05762 15.082 8.87012 15.0176 8.60059 14.9238C8.33105 14.8184 8.16699 14.7539 8.1084 14.7305C7.45215 14.4961 6.86621 14.2207 6.35059 13.9043C5.50684 13.377 4.62207 12.6504 3.69629 11.7246C2.78223 10.8105 2.06152 9.93164 1.53418 9.08789C1.20605 8.57227 0.924805 7.98633 0.69043 7.33008C0.678711 7.25977 0.620117 7.0957 0.514648 6.83789C0.420898 6.56836 0.350586 6.38086 0.303711 6.27539C0.268555 6.16992 0.22168 6.01172 0.163086 5.80078C0.104492 5.58984 0.0634766 5.39648 0.0400391 5.2207C0.0166016 5.04492 0.00488281 4.86914 0.00488281 4.69336C0.00488281 4.07227 0.174805 3.45117 0.514648 2.83008C0.889648 2.15039 1.24707 1.74023 1.58691 1.59961C1.75098 1.5293 1.97949 1.45898 2.27246 1.38867C2.56543 1.31836 2.7998 1.2832 2.97559 1.2832C3.06934 1.2832 3.13965 1.29492 3.18652 1.31836C3.30371 1.35352 3.47949 1.60547 3.71387 2.07422C3.7959 2.20312 3.90137 2.38477 4.03027 2.61914C4.14746 2.85352 4.26465 3.06445 4.38184 3.25195C4.4873 3.45117 4.58691 3.63281 4.68066 3.79688C4.7041 3.82031 4.7627 3.90234 4.85645 4.04297C4.96191 4.18359 5.03809 4.30664 5.08496 4.41211C5.13184 4.50586 5.15527 4.59961 5.15527 4.69336C5.15527 4.82227 5.05566 4.98633 4.85645 5.18555C4.66895 5.39648 4.46387 5.58398 4.24121 5.74805C4.01855 5.91211 3.80762 6.08789 3.6084 6.27539C3.4209 6.46289 3.32715 6.61523 3.32715 6.73242C3.32715 6.80273 3.34473 6.87891 3.37988 6.96094C3.41504 7.05469 3.44434 7.125 3.46777 7.17188C3.49121 7.21875 3.53809 7.30078 3.6084 7.41797C3.67871 7.52344 3.71387 7.58789 3.71387 7.61133C4.22949 8.52539 4.81543 9.31055 5.47168 9.9668C6.12793 10.623 6.91309 11.2031 7.82715 11.707C7.83887 11.7188 7.90332 11.7598 8.02051 11.8301C8.1377 11.9004 8.21973 11.9473 8.2666 11.9707C8.31348 11.9941 8.37793 12.0234 8.45996 12.0586C8.55371 12.0938 8.62988 12.1113 8.68848 12.1113C8.81738 12.1113 8.97559 12.0117 9.16309 11.8125C9.35059 11.625 9.52637 11.4199 9.69043 11.1973C9.85449 10.9746 10.0361 10.7637 10.2354 10.5645C10.4346 10.377 10.6045 10.2832 10.7451 10.2832C10.8389 10.2832 10.9326 10.3066 11.0264 10.3535C11.1201 10.4004 11.2373 10.4707 11.3779 10.5645C11.5186 10.6699 11.6064 10.7285 11.6416 10.7402C11.8057 10.8457 11.9814 10.9512 12.1689 11.0566C12.3682 11.1621 12.585 11.2793 12.8193 11.4082C13.0537 11.5371 13.2295 11.6367 13.3467 11.707C13.8154 11.9414 14.0732 12.123 14.1201 12.252C14.1436 12.2988 14.1553 12.3691 14.1553 12.4629Z" fill="#EEC044"/>
</g>
<defs>
<clipPath id="clip0_4140_891">
<rect width="14.16" height="18" fill="white" transform="matrix(1 0 0 -1 0 18)"/>
</clipPath>
</defs>
</svg>
