<svg width="16" height="16" viewBox="0 0 16 16" fill="none" xmlns="http://www.w3.org/2000/svg">
<path d="M5.4375 13.7344L0.234375 8.53125C0.078125 8.375 0 8.1875 0 7.96875C0 7.75 0.078125 7.5625 0.234375 7.40625L1.35938 6.26562C1.51562 6.10938 1.70573 6.03125 1.92969 6.03125C2.15365 6.03125 2.34375 6.10938 2.5 6.26562L6 9.76562L13.5 2.26562C13.6562 2.10938 13.8464 2.03125 14.0703 2.03125C14.2943 2.03125 14.4844 2.10938 14.6406 2.26562L15.7656 3.40625C15.9219 3.5625 16 3.75 16 3.96875C16 4.1875 15.9219 4.375 15.7656 4.53125L6.5625 13.7344C6.40625 13.8906 6.21875 13.9688 6 13.9688C5.78125 13.9688 5.59375 13.8906 5.4375 13.7344Z" fill="#C5CE38"/>
</svg>
